<svg width="17" height="16" viewBox="0 0 17 16" fill="none" xmlns="http://www.w3.org/2000/svg">
<path d="M4.0774 6.92448C5.3574 9.44003 7.41962 11.4934 9.93517 12.7823L11.8907 10.8267C12.1307 10.5867 12.4863 10.5067 12.7974 10.6134C13.793 10.9423 14.8685 11.12 15.9707 11.12C16.4596 11.12 16.8596 11.52 16.8596 12.0089V15.1111C16.8596 15.6 16.4596 16 15.9707 16C7.62406 16 0.859619 9.23559 0.859619 0.888919C0.859619 0.400031 1.25962 3.05176e-05 1.74851 3.05176e-05H4.85962C5.34851 3.05176e-05 5.74851 0.400031 5.74851 0.888919C5.74851 2.00003 5.92629 3.0667 6.25517 4.06225C6.35295 4.37336 6.28184 4.72003 6.03295 4.96892L4.0774 6.92448Z" fill="white"/>
</svg>
